<svg width="31" height="64" viewBox="0 0 31 64" fill="none" xmlns="http://www.w3.org/2000/svg">
<path d="M0.684511 30.8759C0.674702 27.4114 2.84375 23.2814 5.72126 20.9729L5.90069 20.8701C6.2215 20.6283 6.55016 20.4081 6.88614 20.2155L18.3763 13.6318C18.6925 13.4498 19.0219 13.2912 19.3616 13.1572L19.5412 13.091C20.8039 12.6406 21.9329 12.7015 22.8038 13.2038L29.1165 16.8445L29.114 16.8432C30.2317 17.4865 30.9249 18.8557 30.9305 20.8032L30.9681 33.9969L26.3146 36.6634L25.9101 36.4302L25.9211 40.2457L25.9661 56.0065L21.3125 58.6728L16.7849 56.0616L16.7998 61.2585L12.1463 63.925L5.83347 60.2842L5.79554 46.9958L0.722176 44.0697L0.684511 30.8759Z" fill="#1D1D1F"/>
<path d="M21.2675 42.9125L14.9548 39.2716L14.9998 55.0324L21.3126 58.6731L21.2675 42.9125ZM12.1011 48.1646L5.78846 44.5237L5.83345 60.2844L12.1462 63.9252L12.1011 48.1646ZM26.2736 22.2931L19.961 18.6523L20.0019 33.0231L26.3146 36.6639L26.2736 22.2931Z" fill="#3A4B5B"/>
<path d="M29.1167 16.8445L22.804 13.2038C21.9331 12.7015 20.8041 12.6406 19.5414 13.091L25.854 16.7317C27.1168 16.2811 28.2458 16.3421 29.1167 16.8445Z" fill="#425466"/>
<path d="M12.0507 30.4425L5.73791 26.8018L5.78853 44.5238L12.1012 48.1646L12.0507 30.4425Z" fill="#3A4B5B"/>
<path d="M6.99724 34.5168L0.684566 30.876L0.722363 44.0695L7.03503 47.7105L6.99724 34.5168Z" fill="#3A4B5B"/>
<path d="M18.3763 13.6326C18.6926 13.4506 19.0219 13.292 19.3616 13.158L19.5412 13.0918L25.8539 16.7325L25.6743 16.7987C25.3346 16.9327 25.0053 17.0914 24.689 17.2734L13.1989 23.857L6.88605 20.2163L18.3763 13.6326Z" fill="#425466"/>
<path d="M5.90084 20.8704C6.22165 20.6286 6.55031 20.4084 6.88629 20.2158L13.1991 23.8565C12.8632 24.0492 12.5345 24.2693 12.2135 24.5111L12.0341 24.6139L5.72127 20.9732L5.90084 20.8704Z" fill="#3F5061"/>
<path d="M13.1989 23.8573C12.8631 24.0497 12.5343 24.27 12.2134 24.5118L12.0339 24.6146C9.15655 26.923 6.98737 31.053 6.99718 34.5176L7.03484 47.7113L11.6884 45.0448L11.6475 30.6742L12.0505 30.4433L12.1011 48.1652L12.1463 63.926L16.7998 61.2595L16.7548 45.4987L21.2676 42.913L21.3126 58.6737L25.9662 56.0074L25.9212 40.2466L25.8706 22.5247L26.2737 22.2938L26.3146 36.6644L30.9681 33.9979L30.9305 20.8043C30.9207 17.3398 28.735 15.7049 25.8538 16.7327L25.6743 16.7989C25.3346 16.933 25.0052 17.0916 24.689 17.2736L13.1989 23.8573Z" fill="#526578"/>
<path d="M12.0339 24.6145L5.72114 20.9738C2.84376 23.2821 0.674585 27.4122 0.684394 30.8768L6.99706 34.5175C6.98738 31.0529 9.15656 26.9229 12.0339 24.6145Z" fill="#3A4B5B"/>
<path d="M15.5935 19.6975C10.1127 19.6975 5.66959 15.2881 5.66959 9.84877C5.66959 4.40944 10.1127 0 15.5935 0C21.0743 0 25.5173 4.40944 25.5173 9.84877C25.5173 15.2881 21.0743 19.6975 15.5935 19.6975Z" fill="#526578"/>
<path d="M19.4689 9.84854C17.4011 9.84854 15.7249 8.18495 15.7249 6.1328C15.7249 4.08065 17.4011 2.41705 19.4689 2.41705C21.5367 2.41705 23.213 4.08065 23.213 6.1328C23.213 8.18495 21.5367 9.84854 19.4689 9.84854Z" fill="url(#paint0_radial_2_10257)"/>
<defs>
<radialGradient id="paint0_radial_2_10257" cx="0" cy="0" r="1" gradientUnits="userSpaceOnUse" gradientTransform="translate(19.4689 6.1328) rotate(90) scale(3.71574 3.74408)">
<stop stop-color="#647C94"/>
<stop offset="1" stop-color="#597086" stop-opacity="0"/>
</radialGradient>
</defs>
</svg>
