<svg width="27" height="56" viewBox="0 0 27 56" fill="none" xmlns="http://www.w3.org/2000/svg">
<path d="M0.186562 26.7894C0.178078 23.7835 2.05401 20.2001 4.54267 18.1971L4.69785 18.1079C4.97531 17.8981 5.25956 17.7071 5.55014 17.54L15.4876 11.8277C15.7611 11.6697 16.0459 11.5321 16.3397 11.4158L16.495 11.3584C17.5871 10.9676 18.5636 11.0204 19.3168 11.4563L24.7764 14.6151L24.7742 14.614C25.7409 15.1721 26.3404 16.3601 26.3452 18.0499L26.3778 29.4974L22.3531 31.8109L22.0033 31.6086L22.0128 34.9191L22.0517 48.5939L18.027 50.9074L14.1112 48.6418L14.1241 53.1508L10.0994 55.4643L4.63971 52.3055L4.60691 40.7758L0.219135 38.237L0.186562 26.7894Z" fill="#1D1D1F"/>
<path d="M17.9881 37.2329L12.5285 34.0739L12.5674 47.7487L18.0271 50.9075L17.9881 37.2329ZM10.0604 41.7899L4.60083 38.6309L4.63974 52.3056L10.0995 55.4645L10.0604 41.7899ZM22.3177 19.3426L16.8581 16.1836L16.8935 28.6524L22.3531 31.8113L22.3177 19.3426Z" fill="#3A4B5B"/>
<path d="M24.7765 14.6151L19.3169 11.4563C18.5637 11.0204 17.5872 10.9676 16.4951 11.3584L21.9547 14.5173C23.0468 14.1263 24.0233 14.1792 24.7765 14.6151Z" fill="#425466"/>
<path d="M10.0168 26.4137L4.55704 23.2549L4.60082 38.6313L10.0604 41.7903L10.0168 26.4137Z" fill="#3A4B5B"/>
<path d="M5.6459 29.949L0.186293 26.79L0.218982 38.2374L5.67859 41.3965L5.6459 29.949Z" fill="#3A4B5B"/>
<path d="M15.4879 11.8277C15.7614 11.6697 16.0462 11.5321 16.34 11.4158L16.4953 11.3584L21.955 14.5173L21.7997 14.5747C21.5058 14.691 21.221 14.8286 20.9475 14.9865L11.0101 20.6988L5.55035 17.54L15.4879 11.8277Z" fill="#425466"/>
<path d="M4.69788 18.1077C4.97534 17.8979 5.25959 17.7069 5.55017 17.5398L11.0099 20.6987C10.7194 20.8658 10.4351 21.0568 10.1575 21.2666L10.0023 21.3558L4.54258 18.1969L4.69788 18.1077Z" fill="#3F5061"/>
<path d="M11.0099 20.7001C10.7194 20.8671 10.435 21.0582 10.1575 21.268L10.0023 21.3572C7.51373 23.3601 5.63768 26.9435 5.64616 29.9495L5.67874 41.397L9.70343 39.0834L9.66803 26.6148L10.0166 26.4144L10.0604 41.7908L10.0994 55.4656L14.1241 53.152L14.0852 39.4772L17.9882 37.2337L18.0271 50.9085L22.0518 48.595L22.0129 34.9203L21.9691 19.5439L22.3177 19.3435L22.3531 31.8122L26.3778 29.4986L26.3452 18.0511C26.3367 15.0452 24.4465 13.6267 21.9546 14.5185L21.7993 14.5759C21.5055 14.6922 21.2207 14.8299 20.9472 14.9878L11.0099 20.7001Z" fill="#526578"/>
<path d="M10.0023 21.3571L4.5426 18.1982C2.05406 20.2011 0.178016 23.7845 0.1865 26.7906L5.6461 29.9494C5.63773 26.9434 7.51378 23.36 10.0023 21.3571Z" fill="#3A4B5B"/>
<path d="M13.0808 17.0905C8.34061 17.0905 4.49796 13.2647 4.49796 8.54526C4.49796 3.82584 8.34061 0 13.0808 0C17.8209 0 21.6636 3.82584 21.6636 8.54526C21.6636 13.2647 17.8209 17.0905 13.0808 17.0905Z" fill="#526578"/>
<path d="M16.4327 8.54459C14.6443 8.54459 13.1945 7.10117 13.1945 5.32063C13.1945 3.54009 14.6443 2.09668 16.4327 2.09668C18.221 2.09668 19.6708 3.54009 19.6708 5.32063C19.6708 7.10117 18.221 8.54459 16.4327 8.54459Z" fill="url(#paint0_radial_2_10243)"/>
<defs>
<radialGradient id="paint0_radial_2_10243" cx="0" cy="0" r="1" gradientUnits="userSpaceOnUse" gradientTransform="translate(16.4327 5.32063) rotate(90) scale(3.22395 3.23812)">
<stop stop-color="#647C94"/>
<stop offset="1" stop-color="#597086" stop-opacity="0"/>
</radialGradient>
</defs>
</svg>
