<svg width="191" height="351" viewBox="0 0 191 351" fill="none" xmlns="http://www.w3.org/2000/svg">
<g clip-path="url(#clip0_1_475)">
<path d="M28.1861 255.15C-9.23067 277.084 -9.41605 312.641 27.7578 334.575C64.9317 356.508 125.391 356.516 162.808 334.582C200.225 312.648 200.422 277.084 163.248 255.15C126.075 233.216 65.6029 233.217 28.1861 255.15Z" fill="#4CA8F9"/>
<path d="M19.0194 159.386C18.9688 141.502 30.1657 120.182 45.0199 108.265L45.9462 107.735C47.6022 106.487 49.2988 105.35 51.0332 104.356L110.347 70.3699C111.98 69.4302 113.68 68.6112 115.434 67.9196L116.361 67.5779C122.879 65.2529 128.707 65.5672 133.203 68.1602L165.79 86.9542L165.777 86.9475C171.547 90.2681 175.125 97.3361 175.154 107.39L175.348 175.498L151.326 189.263L149.238 188.059L149.295 207.755L149.527 289.115L125.504 302.879L102.132 289.399L102.209 316.226L78.1868 329.991L45.5991 311.197L45.4034 242.6L19.2138 227.495L19.0194 159.386Z" fill="#1D1D1F"/>
<path d="M125.272 221.522L92.6851 202.727L92.9173 284.087L125.505 302.881L125.272 221.522ZM77.9538 248.634L45.3668 229.84L45.599 311.198L78.1867 329.993L77.9538 248.634ZM151.115 115.082L118.528 96.2869L118.739 170.471L151.326 189.266L151.115 115.082Z" fill="#3A4B5B"/>
<path d="M165.792 86.9542L133.204 68.1602C128.709 65.5672 122.88 65.2529 116.362 67.5779L148.949 86.3719C155.467 84.0456 161.296 84.3605 165.792 86.9542Z" fill="#425466"/>
<path d="M77.6935 157.149L45.1058 138.355L45.3671 229.839L77.9541 248.634L77.6935 157.149Z" fill="#3A4B5B"/>
<path d="M51.6066 178.182L19.0196 159.387L19.2147 227.495L51.8018 246.29L51.6066 178.182Z" fill="#3A4B5B"/>
<path d="M110.347 70.3742C111.98 69.4346 113.68 68.6156 115.434 67.924L116.361 67.5823L148.948 86.3763L148.021 86.718C146.267 87.4099 144.567 88.2288 142.934 89.1682L83.6204 123.154L51.0327 104.36L110.347 70.3742Z" fill="#425466"/>
<path d="M45.947 107.737C47.6031 106.488 49.2997 105.352 51.0341 104.358L83.6218 123.152C81.8881 124.146 80.1908 125.282 78.5341 126.531L77.6078 127.061L45.0201 108.267L45.947 107.737Z" fill="#3F5061"/>
<path d="M83.6209 123.155C81.8872 124.148 80.1899 125.285 78.5332 126.533L77.6069 127.064C62.7534 138.98 51.5558 160.3 51.6064 178.185L51.8008 246.293L75.8232 232.528L75.6119 158.345L77.6926 157.153L77.9539 248.636L78.1868 329.996L102.209 316.231L101.977 234.871L125.273 221.523L125.505 302.883L149.527 289.119L149.295 207.759L149.034 116.275L151.115 115.084L151.326 189.267L175.348 175.502L175.154 107.394C175.103 89.5103 163.821 81.0707 148.948 86.3766L148.021 86.7183C146.267 87.4102 144.567 88.2292 142.934 89.1686L83.6209 123.155Z" fill="#526578"/>
<path d="M77.6077 127.064L45.02 108.27C30.1665 120.186 18.9689 141.506 19.0195 159.391L51.6065 178.185C51.5565 160.3 62.7542 138.98 77.6077 127.064Z" fill="#3A4B5B"/>
<path d="M95.9826 101.682C67.6898 101.682 44.7539 78.9201 44.7539 50.8414C44.7539 22.7628 67.6898 0.000488281 95.9826 0.000488281C124.275 0.000488281 147.211 22.7628 147.211 50.8414C147.211 78.9201 124.275 101.682 95.9826 101.682Z" fill="#526578"/>
<path d="M115.989 50.8398C105.315 50.8398 96.6613 42.2521 96.6613 31.6586C96.6613 21.065 105.315 12.4773 115.989 12.4773C126.663 12.4773 135.316 21.065 135.316 31.6586C135.316 42.2521 126.663 50.8398 115.989 50.8398Z" fill="url(#paint0_radial_1_475)"/>
</g>
<defs>
<radialGradient id="paint0_radial_1_475" cx="0" cy="0" r="1" gradientUnits="userSpaceOnUse" gradientTransform="translate(115.989 31.6586) rotate(90) scale(19.1813 19.3275)">
<stop stop-color="#647C94"/>
<stop offset="1" stop-color="#597086" stop-opacity="0"/>
</radialGradient>
<clipPath id="clip0_1_475">
<rect width="191" height="351" fill="white" transform="matrix(-1 0 0 1 191 0)"/>
</clipPath>
</defs>
</svg>
