<svg width="23" height="48" viewBox="0 0 23 48" fill="none" xmlns="http://www.w3.org/2000/svg">
<path d="M0.688732 22.7029C0.681576 20.1555 2.2644 17.1187 4.3642 15.4212L4.49513 15.3457C4.72924 15.1679 4.96907 15.006 5.21425 14.8644L13.5989 10.0234C13.8297 9.88958 14.07 9.77293 14.318 9.67442L14.449 9.62574C15.3704 9.29458 16.1943 9.33934 16.8299 9.70868L21.4364 12.3857L21.4346 12.3847C22.2502 12.8577 22.756 13.8645 22.7601 15.2965L22.7876 24.9977L19.3918 26.9584L19.0966 26.7869L19.1046 29.5925L19.1374 41.1813L15.7416 43.1418L12.4377 41.2218L12.4485 45.043L9.05272 47.0037L4.44608 44.3267L4.4184 34.5557L0.716219 32.4042L0.688732 22.7029Z" fill="#1D1D1F"/>
<path d="M15.7087 31.5533L11.1022 28.8762L11.135 40.465L15.7416 43.142L15.7087 31.5533ZM9.01975 35.4151L4.41321 32.738L4.44604 44.3267L9.05268 47.0038L9.01975 35.4151ZM19.3619 16.392L14.7553 13.7149L14.7852 24.2817L19.3917 26.9588L19.3619 16.392Z" fill="#3A4B5B"/>
<path d="M21.4365 12.3857L16.83 9.70868C16.1945 9.33934 15.3706 9.29458 14.4491 9.62574L19.0557 12.3027C19.9771 11.9714 20.801 12.0162 21.4365 12.3857Z" fill="#425466"/>
<path d="M8.98294 22.3842L4.3763 19.7072L4.41323 32.7381L9.01978 35.4152L8.98294 22.3842Z" fill="#3A4B5B"/>
<path d="M5.29529 25.3803L0.688751 22.7032L0.716332 32.4043L5.32288 35.0815L5.29529 25.3803Z" fill="#3A4B5B"/>
<path d="M13.5989 10.0238C13.8297 9.89 14.07 9.77335 14.318 9.67483L14.449 9.62616L19.0555 12.3032L18.9245 12.3518C18.6766 12.4504 18.4363 12.567 18.2055 12.7008L9.82079 17.5418L5.21415 14.8648L13.5989 10.0238Z" fill="#425466"/>
<path d="M4.49517 15.3455C4.72927 15.1677 4.96911 15.0059 5.21428 14.8643L9.82092 17.5413C9.57584 17.6829 9.33591 17.8447 9.10171 18.0225L8.97077 18.0981L4.36413 15.4211L4.49517 15.3455Z" fill="#3F5061"/>
<path d="M9.82089 17.5421C9.57581 17.6836 9.33588 17.8456 9.10168 18.0234L8.97074 18.099C6.87103 19.7963 5.28812 22.8331 5.29527 25.3806L5.32276 35.0819L8.71859 33.1212L8.68872 22.5546L8.98286 22.3848L9.01979 35.4156L9.05272 47.0044L12.4485 45.0438L12.4157 33.455L15.7089 31.5537L15.7417 43.1425L19.1375 41.1819L19.1047 29.5931L19.0678 16.5623L19.3619 16.3925L19.3918 26.9591L22.7876 24.9985L22.7601 15.2973C22.753 12.7499 21.158 11.5477 19.0555 12.3035L18.9245 12.3522C18.6766 12.4507 18.4363 12.5674 18.2055 12.7012L9.82089 17.5421Z" fill="#526578"/>
<path d="M8.9707 18.0989L4.36407 15.4219C2.26436 17.1192 0.681448 20.156 0.688605 22.7035L5.29515 25.3805C5.28808 22.833 6.871 19.7962 8.9707 18.0989Z" fill="#3A4B5B"/>
<path d="M11.5682 14.4835C7.56869 14.4835 4.32645 11.2412 4.32645 7.24174C4.32645 3.24224 7.56869 0 11.5682 0C15.5677 0 18.8099 3.24224 18.8099 7.24174C18.8099 11.2412 15.5677 14.4835 11.5682 14.4835Z" fill="#526578"/>
<path d="M14.3964 7.24155C12.8874 7.24155 11.6642 6.01832 11.6642 4.50939C11.6642 3.00045 12.8874 1.77722 14.3964 1.77722C15.9053 1.77722 17.1285 3.00045 17.1285 4.50939C17.1285 6.01832 15.9053 7.24155 14.3964 7.24155Z" fill="url(#paint0_radial_2_10229)"/>
<defs>
<radialGradient id="paint0_radial_2_10229" cx="0" cy="0" r="1" gradientUnits="userSpaceOnUse" gradientTransform="translate(14.3964 4.50939) rotate(90) scale(2.73216)">
<stop stop-color="#647C94"/>
<stop offset="1" stop-color="#597086" stop-opacity="0"/>
</radialGradient>
</defs>
</svg>
